<mxfile host="app.diagrams.net" modified="2023-09-26T13:42:09.135Z" agent="Mozilla/5.0 (Windows NT 10.0; Win64; x64) AppleWebKit/537.36 (KHTML, like Gecko) Chrome/117.0.0.0 Safari/537.36" version="21.8.0" etag="eWCJ8nu6ebGBb-O6j56Z" type="github">
  <diagram name="PÃ¡gina-1" id="n-JcVMdkXLjXNwTriQHU">
    <mxGraphModel>
      <root>
        <mxCell id="0" />
        <mxCell id="1" parent="0" />
      </root>
    </mxGraphModel>
  </diagram>
</mxfile>
